<svg width="106" height="33" viewBox="0 0 106 33" fill="none" xmlns="http://www.w3.org/2000/svg">
<path d="M3.00584 8.46666H1L1 33L105 33V11.4536L101.991 18.9203L100.796 21.9069H99.3945L96.5917 18.9203L94.6298 21.907L88.744 21.9072L85.661 18.9204L83.9793 14.4396L81.5317 16.6803L79.3253 18.9203L78.6362 22.3333L77.2349 21.9069H75.5142L72.3048 11.4536L71.3019 14.4403L69.6972 11.4536L68.4937 16.6803L65.2844 7.72028L63.4791 11.4536H60.0692L56.4587 3.98696L54.2523 7.72028L51.3465 5.48L47.806 11.4533L45.5296 1L43.8821 11.4533L32.8928 15.9333L31.4887 12.9466H30.0847L26.8753 8.46666H23.666L22.4625 12.9466L17.6485 3.98666L15.6426 15.9333L14.6397 11.4533H12.4333L10.4274 1L8.4216 9.95999L7.41868 5.48H4.81109L3.00584 8.46666Z" fill="url(#paint0_linear_2133_4687)" fill-opacity="0.16"/>
<path d="M1 8.4667H3.00584L4.81109 5.48004H7.41868L8.4216 9.96003L10.4274 1.00004L12.4333 11.4534H14.6397L15.6426 15.9333L17.6485 3.9867L22.4625 12.9467L23.666 8.4667H26.8753L30.0847 12.9467H31.4887L32.8928 15.9333L43.8821 11.4534L45.5296 1.00004L47.806 11.4534L51.3465 5.48004L54.2523 7.72032L56.4587 3.987L60.0692 11.4536H63.4791L65.2844 7.72032L68.4937 16.6803L69.6972 11.4536L71.3019 14.4403L72.3048 11.4536L75.5142 21.907H77.2349L78.6362 22.3334L79.3253 18.9203L81.5317 16.6803L83.9794 14.4396L85.661 18.9204L88.744 21.9073L94.6298 21.907L96.5917 18.9203L99.3945 21.907H100.796L101.991 18.9203L105 11.4536" stroke="#ED544E" stroke-linecap="round"/>
<defs>
<linearGradient id="paint0_linear_2133_4687" x1="53" y1="33" x2="53" y2="1" gradientUnits="userSpaceOnUse">
<stop stop-color="#ED544E" stop-opacity="0"/>
<stop offset="0.809892" stop-color="#ED544E"/>
</linearGradient>
</defs>
</svg>
