<svg width="40" height="40" viewBox="0 0 40 40" fill="none" xmlns="http://www.w3.org/2000/svg">
<circle cx="20" cy="20" r="19.6429" stroke="#E6E6E6" stroke-width="0.714286"/>
<path d="M24.25 30.5C25.2165 30.5 26 29.7165 26 28.75C26 27.7835 25.2165 27 24.25 27C23.2835 27 22.5 27.7835 22.5 28.75C22.5 29.7165 23.2835 30.5 24.25 30.5Z" fill="#34CAA5"/>
<path d="M16.25 30.5C17.2165 30.5 18 29.7165 18 28.75C18 27.7835 17.2165 27 16.25 27C15.2835 27 14.5 27.7835 14.5 28.75C14.5 29.7165 15.2835 30.5 16.25 30.5Z" fill="#34CAA5"/>
<path opacity="0.4" d="M12.84 11.94L12.64 14.39C12.6 14.86 12.97 15.25 13.44 15.25H28.75C29.17 15.25 29.52 14.93 29.55 14.51C29.68 12.74 28.33 11.3 26.56 11.3H14.29C14.19 10.86 13.99 10.44 13.68 10.09C13.19 9.56 12.49 9.25 11.77 9.25H10C9.59 9.25 9.25 9.59 9.25 10C9.25 10.41 9.59 10.75 10 10.75H11.74C12.05 10.75 12.34 10.88 12.55 11.1C12.76 11.33 12.86 11.63 12.84 11.94Z" fill="#34CAA5"/>
<path d="M28.5101 16.75H13.1701C12.7501 16.75 12.4101 17.07 12.3701 17.48L12.0101 21.83C11.8701 23.53 13.2101 25 14.9201 25H26.0401C27.5401 25 28.8601 23.77 28.9701 22.27L29.3001 17.6C29.3401 17.14 28.9801 16.75 28.5101 16.75Z" fill="#34CAA5"/>
</svg>
