<svg width="40" height="40" viewBox="0 0 40 40" fill="none" xmlns="http://www.w3.org/2000/svg">
<circle cx="20" cy="20" r="19.6429" stroke="#E6E6E6" stroke-width="0.714286"/>
<path opacity="0.4" d="M17.99 25.98C22.4028 25.98 25.98 22.4028 25.98 17.99C25.98 13.5772 22.4028 10 17.99 10C13.5772 10 10 13.5772 10 17.99C10 22.4028 13.5772 25.98 17.99 25.98Z" fill="#34CAA5"/>
<path d="M29.9701 23.99C29.9701 27.29 27.2901 29.97 23.9901 29.97C21.9501 29.97 20.1601 28.95 19.0801 27.4C23.4401 26.91 26.9101 23.44 27.4001 19.08C28.9501 20.16 29.9701 21.95 29.9701 23.99Z" fill="#34CAA5"/>
<path d="M19.45 17.71L17.05 16.87C16.81 16.79 16.76 16.77 16.76 16.42C16.76 16.16 16.94 15.95 17.17 15.95H18.67C18.99 15.95 19.25 16.24 19.25 16.6C19.25 17.01 19.59 17.35 20 17.35C20.41 17.35 20.75 17.01 20.75 16.6C20.75 15.45 19.86 14.51 18.75 14.46V14.41C18.75 14 18.41 13.66 18 13.66C17.59 13.66 17.25 13.99 17.25 14.41V14.46H17.16C16.11 14.46 15.25 15.34 15.25 16.43C15.25 17.38 15.67 17.99 16.54 18.29L18.95 19.13C19.19 19.21 19.24 19.23 19.24 19.58C19.24 19.84 19.06 20.05 18.83 20.05H17.33C17.01 20.05 16.75 19.76 16.75 19.4C16.75 18.99 16.41 18.65 16 18.65C15.59 18.65 15.25 18.99 15.25 19.4C15.25 20.55 16.14 21.49 17.25 21.54V21.6C17.25 22.01 17.59 22.35 18 22.35C18.41 22.35 18.75 22.01 18.75 21.6V21.55H18.84C19.89 21.55 20.75 20.67 20.75 19.58C20.75 18.63 20.32 18.02 19.45 17.71Z" fill="#34CAA5"/>
</svg>
