<svg width="697" height="255" viewBox="0 0 697 255" fill="none" xmlns="http://www.w3.org/2000/svg">
<path fill-rule="evenodd" clip-rule="evenodd" d="M1 0.5H696.413H1Z" fill="white"/>
<path d="M1 0.5H696.413" stroke="#EAEAEA" stroke-linecap="round" stroke-dasharray="4 4"/>
<path fill-rule="evenodd" clip-rule="evenodd" d="M1 28.7222H696.413H1Z" fill="white"/>
<path d="M1 28.7222H696.413" stroke="#EAEAEA" stroke-linecap="round" stroke-dasharray="4 4"/>
<path fill-rule="evenodd" clip-rule="evenodd" d="M1 56.9445H696.413H1Z" fill="white"/>
<path d="M1 56.9445H696.413" stroke="#EAEAEA" stroke-linecap="round" stroke-dasharray="4 4"/>
<path fill-rule="evenodd" clip-rule="evenodd" d="M1 85.1666H696.413H1Z" fill="white"/>
<path d="M1 85.1666H696.413" stroke="#EAEAEA" stroke-linecap="round" stroke-dasharray="4 4"/>
<path fill-rule="evenodd" clip-rule="evenodd" d="M1 113.389H696.413H1Z" fill="white"/>
<path d="M1 113.389H696.413" stroke="#EAEAEA" stroke-linecap="round" stroke-dasharray="4 4"/>
<path fill-rule="evenodd" clip-rule="evenodd" d="M1 141.611H696.413H1Z" fill="white"/>
<path d="M1 141.611H696.413" stroke="#EAEAEA" stroke-linecap="round" stroke-dasharray="4 4"/>
<path fill-rule="evenodd" clip-rule="evenodd" d="M1 169.833H696.413H1Z" fill="white"/>
<path d="M1 169.833H696.413" stroke="#EAEAEA" stroke-linecap="round" stroke-dasharray="4 4"/>
<path fill-rule="evenodd" clip-rule="evenodd" d="M1 198.056H696.413H1Z" fill="white"/>
<path d="M1 198.056H696.413" stroke="#EAEAEA" stroke-linecap="round" stroke-dasharray="4 4"/>
<path fill-rule="evenodd" clip-rule="evenodd" d="M1 226.278H696.413H1Z" fill="white"/>
<path d="M1 226.278H696.413" stroke="#EAEAEA" stroke-linecap="round" stroke-dasharray="4 4"/>
<path fill-rule="evenodd" clip-rule="evenodd" d="M1 254.5H696.413H1Z" fill="white"/>
<path d="M1 254.5H696.413" stroke="#EAEAEA" stroke-linecap="round" stroke-dasharray="4 4"/>
</svg>
